<?xml version="1.0" standalone="no"?>
<!DOCTYPE svg PUBLIC "-//W3C//DTD SVG 20010904//EN"
 "http://www.w3.org/TR/2001/REC-SVG-20010904/DTD/svg10.dtd">
<svg version="1.0" xmlns="http://www.w3.org/2000/svg"
 width="3840.000000pt" height="2160.000000pt" viewBox="0 0 3840.000000 2160.000000"
 preserveAspectRatio="xMidYMid meet"> 

<g transform="translate(0.000000,2160.000000) scale(0.100000,-0.100000)"
fill="#e90f0f" stroke="none">
<path d="M240 10804 l0 -5206 24 6 c28 7 26 7 596 90 388 56 689 96 935 123
l70 8 5 2835 c3 1559 8 2828 12 2820 10 -21 214 -626 563 -1665 40 -121 157
-467 259 -770 306 -909 760 -2257 883 -2625 63 -190 118 -348 122 -352 3 -4
114 6 246 22 132 16 292 34 355 40 437 42 880 97 1113 136 l37 7 0 4868 0
4869 -805 0 -805 0 0 -2947 c0 -1746 -4 -2943 -9 -2937 -5 5 -41 101 -81 214
-39 113 -98 279 -130 370 -177 499 -224 630 -240 680 -10 30 -67 190 -125 355
-59 165 -135 381 -170 480 -35 99 -87 245 -115 325 -28 80 -55 156 -60 170 -9
27 -176 503 -217 615 -24 68 -84 239 -223 635 -38 107 -116 330 -175 495 -59
165 -135 381 -170 480 -142 404 -208 592 -288 820 l-85 240 -761 3 -761 2 0
-5206z"/>
<path d="M7017 16003 c-4 -3 -7 -2164 -7 -4801 l0 -4795 98 7 c53 3 205 15
337 26 132 11 440 36 685 55 245 20 639 51 875 70 237 19 486 39 555 45 69 5
323 26 565 45 844 67 1061 85 1193 96 l132 12 0 778 0 779 -67 0 c-171 0
-1060 -51 -1828 -105 -198 -14 -457 -32 -575 -40 -118 -8 -250 -18 -292 -21
l-78 -6 0 1211 0 1210 33 5 c78 12 450 19 1252 25 l860 6 3 813 2 812 -277 -5
c-1054 -21 -1292 -25 -1566 -25 l-307 0 2 1093 3 1092 1418 3 1417 2 0 810 0
810 -2213 0 c-1218 0 -2217 -3 -2220 -7z"/>
<path d="M12480 15200 l0 -810 833 -2 832 -3 3 -3753 2 -3754 53 7 c28 4 387
10 797 14 l745 6 3 3743 2 3742 830 0 830 0 0 810 0 810 -2465 0 -2465 0 0
-810z"/>
<path d="M18450 11505 l0 -4505 780 0 780 0 2 1843 3 1842 1098 3 1097 2 0
810 0 810 -1100 0 -1100 0 2 1038 3 1037 1453 3 1452 2 0 810 0 810 -2235 0
-2235 0 0 -4505z"/>
<path d="M23928 11447 l2 -4563 433 -12 c845 -24 1786 -71 3082 -152 435 -28
793 -50 798 -50 6 0 11 1600 5 1600 -2 0 -106 7 -233 15 -126 7 -340 21 -475
29 -867 55 -1355 81 -1790 94 l-225 7 -3 3798 -2 3797 -798 0 -797 0 3 -4563z"/>
<path d="M29608 11286 l2 -4724 38 -6 c20 -3 93 -8 162 -11 317 -16 803 -52
1143 -86 114 -12 211 -18 215 -14 8 8 15 9509 7 9543 l-5 22 -783 0 -782 0 3
-4724z"/>
<path d="M32560 16000 c0 -5 23 -70 51 -142 27 -73 66 -176 85 -228 19 -52 39
-104 44 -115 10 -21 251 -651 475 -1245 41 -107 106 -278 145 -380 39 -102 77
-201 84 -220 7 -19 86 -226 176 -460 89 -234 189 -497 222 -585 33 -88 68
-180 78 -205 9 -25 53 -139 98 -255 44 -115 112 -293 150 -395 39 -102 109
-286 156 -409 47 -123 86 -231 86 -239 0 -8 -27 -79 -61 -156 -34 -78 -139
-321 -234 -541 -95 -220 -212 -490 -260 -600 -48 -110 -100 -230 -115 -266
-15 -36 -35 -81 -43 -100 -18 -39 -94 -215 -177 -409 -32 -74 -104 -241 -160
-370 -57 -129 -116 -266 -132 -305 -16 -38 -65 -151 -108 -250 -137 -315 -246
-566 -310 -715 -34 -80 -70 -163 -80 -185 -10 -22 -45 -103 -78 -180 -33 -77
-99 -230 -147 -340 -109 -250 -145 -336 -145 -345 0 -4 21 -10 48 -13 175 -22
504 -60 712 -82 441 -47 790 -92 933 -121 19 -4 27 -2 27 9 0 8 11 39 24 68
13 30 60 140 104 244 145 344 364 859 384 905 11 25 39 92 63 150 39 97 97
232 130 305 7 17 37 86 65 155 29 69 104 247 167 395 63 149 135 320 161 380
25 61 51 118 58 128 12 18 17 6 95 -198 31 -82 173 -454 217 -565 29 -75 211
-551 312 -815 38 -99 88 -232 113 -295 61 -159 315 -824 338 -885 49 -131 88
-218 100 -225 8 -4 59 -15 114 -25 55 -9 190 -32 300 -51 836 -145 1365 -227
1365 -213 0 5 -11 36 -24 71 -13 35 -56 151 -95 258 -62 169 -190 512 -237
635 -9 22 -33 87 -54 145 -21 58 -43 116 -48 130 -6 14 -57 149 -112 300 -56
151 -115 309 -131 350 -15 41 -64 172 -108 290 -43 118 -163 440 -266 715
-281 752 -403 1080 -441 1185 -19 52 -40 106 -45 120 -11 24 -128 338 -153
409 -28 78 -158 428 -168 451 -5 14 -27 72 -48 130 -21 58 -50 134 -65 170
-31 76 -29 110 8 190 14 30 51 118 83 195 86 213 136 336 202 495 58 141 76
184 224 545 39 94 94 229 123 300 68 168 214 521 270 655 24 58 68 166 98 240
30 74 75 185 100 245 136 331 173 419 209 510 22 55 52 129 68 165 26 58 118
281 305 740 35 85 86 211 115 280 29 69 70 170 92 225 21 55 45 113 53 130 23
51 45 107 45 116 0 5 -377 9 -870 9 l-870 0 -16 -37 c-18 -43 -145 -353 -239
-583 -35 -85 -86 -211 -115 -280 -52 -125 -145 -354 -225 -550 -24 -58 -70
-170 -103 -250 -79 -193 -141 -343 -217 -530 -175 -427 -203 -495 -210 -495
-4 0 -59 137 -124 305 -144 375 -258 670 -281 730 -9 25 -70 182 -135 350 -64
168 -131 341 -148 385 -34 91 -92 243 -112 295 -8 19 -68 175 -134 345 l-119
310 -856 3 c-565 1 -856 -1 -856 -8z"/>
</g>
</svg>
